<svg width="1024" height="753" viewBox="0 0 1024 753" fill="none" xmlns="http://www.w3.org/2000/svg">
<g clip-path="url(#clip0_175_1901)">
<rect width="1024" height="753" fill="#121214"/>
<g opacity="0.2" filter="url(#filter0_f_175_1901)">
<ellipse cx="512.5" cy="-7.24115" rx="670.5" ry="374.759" fill="#B3A659"/>
</g>
<path d="M33.0349 245.453C34.5302 245.453 35.6622 246.128 36.4308 247.478C37.2134 248.813 37.6047 250.757 37.6047 253.308C37.6047 255.86 37.2134 257.811 36.4308 259.161C35.6622 260.511 34.5302 261.186 33.0349 261.186C31.5536 261.186 30.4216 260.511 29.639 259.161C28.8564 257.811 28.4651 255.86 28.4651 253.308C28.4651 250.772 28.8564 248.828 29.639 247.478C30.4216 246.128 31.5536 245.453 33.0349 245.453ZM29.9534 253.308C29.9534 255.118 30.1072 256.535 30.4146 257.559L35.0683 247.701C34.5791 247.004 33.9013 246.655 33.0349 246.655C32.0706 246.655 31.316 247.204 30.771 248.302C30.2259 249.385 29.9534 251.054 29.9534 253.308ZM33.0349 259.962C34.0131 259.962 34.7748 259.42 35.3198 258.337C35.8648 257.24 36.1373 255.563 36.1373 253.308C36.1373 251.395 35.9627 249.911 35.6133 248.858L30.9596 258.805C31.4627 259.576 32.1545 259.962 33.0349 259.962Z" fill="url(#paint0_linear_175_1901)" fill-opacity="0.6"/>
<path d="M34.2926 285.215H37.3741V286.394H29.3874V285.215H32.9511V272.709L29.5551 274.868L28.9682 273.866L33.1607 271.107H34.2926V285.215Z" fill="url(#paint1_linear_175_1901)" fill-opacity="0.6"/>
<path d="M33.0349 296.316C34.5302 296.316 35.6622 296.991 36.4308 298.341C37.2134 299.676 37.6047 301.619 37.6047 304.171C37.6047 306.722 37.2134 308.673 36.4308 310.023C35.6622 311.373 34.5302 312.048 33.0349 312.048C31.5536 312.048 30.4216 311.373 29.639 310.023C28.8564 308.673 28.4651 306.722 28.4651 304.171C28.4651 301.634 28.8564 299.691 29.639 298.341C30.4216 296.991 31.5536 296.316 33.0349 296.316ZM29.9534 304.171C29.9534 305.981 30.1072 307.397 30.4146 308.421L35.0683 298.563C34.5791 297.866 33.9013 297.517 33.0349 297.517C32.0706 297.517 31.316 298.066 30.771 299.164C30.2259 300.247 29.9534 301.916 29.9534 304.171ZM33.0349 310.824C34.0131 310.824 34.7748 310.283 35.3198 309.2C35.8648 308.102 36.1373 306.426 36.1373 304.171C36.1373 302.257 35.9627 300.774 35.6133 299.72L30.9596 309.667C31.4627 310.439 32.1545 310.824 33.0349 310.824Z" fill="url(#paint2_linear_175_1901)" fill-opacity="0.6"/>
<path d="M34.2926 336.077H37.3741V337.257H29.3874V336.077H32.9511V323.572L29.5551 325.73L28.9682 324.729L33.1607 321.969H34.2926V336.077Z" fill="url(#paint3_linear_175_1901)" fill-opacity="0.6"/>
<path d="M34.2926 361.509H37.3741V362.688H29.3874V361.509H32.9511V349.003L29.5551 351.161L28.9682 350.16L33.1607 347.401H34.2926V361.509Z" fill="url(#paint4_linear_175_1901)" fill-opacity="0.6"/>
<path d="M33.0349 372.609C34.5302 372.609 35.6622 373.284 36.4308 374.634C37.2134 375.969 37.6047 377.913 37.6047 380.464C37.6047 383.016 37.2134 384.967 36.4308 386.317C35.6622 387.667 34.5302 388.342 33.0349 388.342C31.5536 388.342 30.4216 387.667 29.639 386.317C28.8564 384.967 28.4651 383.016 28.4651 380.464C28.4651 377.928 28.8564 375.984 29.639 374.634C30.4216 373.284 31.5536 372.609 33.0349 372.609ZM29.9534 380.464C29.9534 382.274 30.1072 383.691 30.4146 384.715L35.0683 374.857C34.5791 374.16 33.9013 373.811 33.0349 373.811C32.0706 373.811 31.316 374.36 30.771 375.458C30.2259 376.541 29.9534 378.21 29.9534 380.464ZM33.0349 387.118C34.0131 387.118 34.7748 386.576 35.3198 385.493C35.8648 384.396 36.1373 382.719 36.1373 380.464C36.1373 378.551 35.9627 377.067 35.6133 376.014L30.9596 385.961C31.4627 386.732 32.1545 387.118 33.0349 387.118Z" fill="url(#paint5_linear_175_1901)" fill-opacity="0.6"/>
<path d="M34.2926 412.371H37.3741V413.55H29.3874V412.371H32.9511V399.865L29.5551 402.024L28.9682 401.022L33.1607 398.263H34.2926V412.371Z" fill="url(#paint6_linear_175_1901)" fill-opacity="0.6"/>
<path d="M33.0349 423.472C34.5302 423.472 35.6622 424.147 36.4308 425.497C37.2134 426.832 37.6047 428.775 37.6047 431.327C37.6047 433.878 37.2134 435.829 36.4308 437.179C35.6622 438.529 34.5302 439.204 33.0349 439.204C31.5536 439.204 30.4216 438.529 29.639 437.179C28.8564 435.829 28.4651 433.878 28.4651 431.327C28.4651 428.79 28.8564 426.847 29.639 425.497C30.4216 424.147 31.5536 423.472 33.0349 423.472ZM29.9534 431.327C29.9534 433.137 30.1072 434.553 30.4146 435.577L35.0683 425.719C34.5791 425.022 33.9013 424.673 33.0349 424.673C32.0706 424.673 31.316 425.222 30.771 426.32C30.2259 427.403 29.9534 429.072 29.9534 431.327ZM33.0349 437.98C34.0131 437.98 34.7748 437.439 35.3198 436.356C35.8648 435.258 36.1373 433.582 36.1373 431.327C36.1373 429.413 35.9627 427.93 35.6133 426.876L30.9596 436.823C31.4627 437.595 32.1545 437.98 33.0349 437.98Z" fill="url(#paint7_linear_175_1901)" fill-opacity="0.6"/>
<path d="M33.0349 448.903C34.5302 448.903 35.6622 449.578 36.4308 450.928C37.2134 452.263 37.6047 454.206 37.6047 456.758C37.6047 459.31 37.2134 461.26 36.4308 462.61C35.6622 463.96 34.5302 464.635 33.0349 464.635C31.5536 464.635 30.4216 463.96 29.639 462.61C28.8564 461.26 28.4651 459.31 28.4651 456.758C28.4651 454.221 28.8564 452.278 29.639 450.928C30.4216 449.578 31.5536 448.903 33.0349 448.903ZM29.9534 456.758C29.9534 458.568 30.1072 459.985 30.4146 461.008L35.0683 451.15C34.5791 450.453 33.9013 450.105 33.0349 450.105C32.0706 450.105 31.316 450.653 30.771 451.751C30.2259 452.834 29.9534 454.503 29.9534 456.758ZM33.0349 463.411C34.0131 463.411 34.7748 462.87 35.3198 461.787C35.8648 460.689 36.1373 459.013 36.1373 456.758C36.1373 454.844 35.9627 453.361 35.6133 452.308L30.9596 462.254C31.4627 463.026 32.1545 463.411 33.0349 463.411Z" fill="url(#paint8_linear_175_1901)" fill-opacity="0.6"/>
<path d="M34.2926 488.665H37.3741V489.844H29.3874V488.665H32.9511V476.159L29.5551 478.317L28.9682 477.316L33.1607 474.557H34.2926V488.665Z" fill="url(#paint9_linear_175_1901)" fill-opacity="0.6"/>
<path d="M33.0349 499.765C34.5302 499.765 35.6622 500.44 36.4308 501.79C37.2134 503.125 37.6047 505.069 37.6047 507.62C37.6047 510.172 37.2134 512.123 36.4308 513.473C35.6622 514.823 34.5302 515.498 33.0349 515.498C31.5536 515.498 30.4216 514.823 29.639 513.473C28.8564 512.123 28.4651 510.172 28.4651 507.62C28.4651 505.084 28.8564 503.14 29.639 501.79C30.4216 500.44 31.5536 499.765 33.0349 499.765ZM29.9534 507.62C29.9534 509.43 30.1072 510.847 30.4146 511.871L35.0683 502.013C34.5791 501.316 33.9013 500.967 33.0349 500.967C32.0706 500.967 31.316 501.516 30.771 502.614C30.2259 503.697 29.9534 505.366 29.9534 507.62ZM33.0349 514.274C34.0131 514.274 34.7748 513.732 35.3198 512.649C35.8648 511.552 36.1373 509.875 36.1373 507.62C36.1373 505.707 35.9627 504.223 35.6133 503.17L30.9596 513.117C31.4627 513.888 32.1545 514.274 33.0349 514.274Z" fill="url(#paint10_linear_175_1901)" fill-opacity="0.6"/>
<path d="M34.2926 539.527H37.3741V540.706H29.3874V539.527H32.9511V527.021L29.5551 529.18L28.9682 528.178L33.1607 525.419H34.2926V539.527Z" fill="url(#paint11_linear_175_1901)" fill-opacity="0.6"/>
<path d="M34.2926 564.958H37.3741V566.138H29.3874V564.958H32.9511V552.452L29.5551 554.611L28.9682 553.61L33.1607 550.85H34.2926V564.958Z" fill="url(#paint12_linear_175_1901)" fill-opacity="0.6"/>
<path d="M71.9651 296.316C73.4604 296.316 74.5924 296.991 75.361 298.341C76.1436 299.676 76.5349 301.619 76.5349 304.171C76.5349 306.722 76.1436 308.673 75.361 310.023C74.5924 311.373 73.4604 312.048 71.9651 312.048C70.4838 312.048 69.3518 311.373 68.5692 310.023C67.7866 308.673 67.3953 306.722 67.3953 304.171C67.3953 301.634 67.7866 299.691 68.5692 298.341C69.3518 296.991 70.4838 296.316 71.9651 296.316ZM68.8836 304.171C68.8836 305.981 69.0374 307.397 69.3448 308.421L73.9985 298.563C73.5093 297.866 72.8315 297.517 71.9651 297.517C71.0008 297.517 70.2462 298.066 69.7012 299.164C69.1561 300.247 68.8836 301.916 68.8836 304.171ZM71.9651 310.824C72.9433 310.824 73.705 310.283 74.25 309.2C74.795 308.102 75.0675 306.426 75.0675 304.171C75.0675 302.257 74.8928 300.774 74.5435 299.72L69.8898 309.667C70.3929 310.439 71.0847 310.824 71.9651 310.824Z" fill="url(#paint13_linear_175_1901)" fill-opacity="0.6"/>
<path d="M73.2228 336.077H76.3043V337.257H68.3176V336.077H71.8812V323.572L68.4853 325.73L67.8984 324.729L72.0909 321.969H73.2228V336.077Z" fill="url(#paint14_linear_175_1901)" fill-opacity="0.6"/>
<path d="M71.9651 347.178C73.4604 347.178 74.5924 347.853 75.361 349.203C76.1436 350.538 76.5349 352.482 76.5349 355.033C76.5349 357.585 76.1436 359.536 75.361 360.886C74.5924 362.236 73.4604 362.911 71.9651 362.911C70.4838 362.911 69.3518 362.236 68.5692 360.886C67.7866 359.536 67.3953 357.585 67.3953 355.033C67.3953 352.496 67.7866 350.553 68.5692 349.203C69.3518 347.853 70.4838 347.178 71.9651 347.178ZM68.8836 355.033C68.8836 356.843 69.0374 358.26 69.3448 359.283L73.9985 349.426C73.5093 348.728 72.8315 348.38 71.9651 348.38C71.0008 348.38 70.2462 348.929 69.7012 350.026C69.1561 351.109 68.8836 352.778 68.8836 355.033ZM71.9651 361.687C72.9433 361.687 73.705 361.145 74.25 360.062C74.795 358.964 75.0675 357.288 75.0675 355.033C75.0675 353.12 74.8928 351.636 74.5435 350.583L69.8898 360.53C70.3929 361.301 71.0847 361.687 71.9651 361.687Z" fill="url(#paint15_linear_175_1901)" fill-opacity="0.6"/>
<path d="M71.9651 372.609C73.4604 372.609 74.5924 373.284 75.361 374.634C76.1436 375.969 76.5349 377.913 76.5349 380.464C76.5349 383.016 76.1436 384.967 75.361 386.317C74.5924 387.667 73.4604 388.342 71.9651 388.342C70.4838 388.342 69.3518 387.667 68.5692 386.317C67.7866 384.967 67.3953 383.016 67.3953 380.464C67.3953 377.928 67.7866 375.984 68.5692 374.634C69.3518 373.284 70.4838 372.609 71.9651 372.609ZM68.8836 380.464C68.8836 382.274 69.0374 383.691 69.3448 384.715L73.9985 374.857C73.5093 374.16 72.8315 373.811 71.9651 373.811C71.0008 373.811 70.2462 374.36 69.7012 375.458C69.1561 376.541 68.8836 378.21 68.8836 380.464ZM71.9651 387.118C72.9433 387.118 73.705 386.576 74.25 385.493C74.795 384.396 75.0675 382.719 75.0675 380.464C75.0675 378.551 74.8928 377.067 74.5435 376.014L69.8898 385.961C70.3929 386.732 71.0847 387.118 71.9651 387.118Z" fill="url(#paint16_linear_175_1901)" fill-opacity="0.6"/>
<path d="M73.2228 412.371H76.3043V413.55H68.3176V412.371H71.8812V399.865L68.4853 402.024L67.8984 401.022L72.0909 398.263H73.2228V412.371Z" fill="url(#paint17_linear_175_1901)" fill-opacity="0.6"/>
<path d="M71.9651 423.472C73.4604 423.472 74.5924 424.147 75.361 425.497C76.1436 426.832 76.5349 428.775 76.5349 431.327C76.5349 433.878 76.1436 435.829 75.361 437.179C74.5924 438.529 73.4604 439.204 71.9651 439.204C70.4838 439.204 69.3518 438.529 68.5692 437.179C67.7866 435.829 67.3953 433.878 67.3953 431.327C67.3953 428.79 67.7866 426.847 68.5692 425.497C69.3518 424.147 70.4838 423.472 71.9651 423.472ZM68.8836 431.327C68.8836 433.137 69.0374 434.553 69.3448 435.577L73.9985 425.719C73.5093 425.022 72.8315 424.673 71.9651 424.673C71.0008 424.673 70.2462 425.222 69.7012 426.32C69.1561 427.403 68.8836 429.072 68.8836 431.327ZM71.9651 437.98C72.9433 437.98 73.705 437.439 74.25 436.356C74.795 435.258 75.0675 433.582 75.0675 431.327C75.0675 429.413 74.8928 427.93 74.5435 426.876L69.8898 436.823C70.3929 437.595 71.0847 437.98 71.9651 437.98Z" fill="url(#paint18_linear_175_1901)" fill-opacity="0.6"/>
<path d="M73.2228 463.233H76.3043V464.413H68.3176V463.233H71.8812V450.728L68.4853 452.886L67.8984 451.885L72.0909 449.125H73.2228V463.233Z" fill="url(#paint19_linear_175_1901)" fill-opacity="0.6"/>
<path d="M71.9651 474.334C73.4604 474.334 74.5924 475.009 75.361 476.359C76.1436 477.694 76.5349 479.638 76.5349 482.189C76.5349 484.741 76.1436 486.692 75.361 488.042C74.5924 489.392 73.4604 490.067 71.9651 490.067C70.4838 490.067 69.3518 489.392 68.5692 488.042C67.7866 486.692 67.3953 484.741 67.3953 482.189C67.3953 479.652 67.7866 477.709 68.5692 476.359C69.3518 475.009 70.4838 474.334 71.9651 474.334ZM68.8836 482.189C68.8836 483.999 69.0374 485.416 69.3448 486.439L73.9985 476.582C73.5093 475.884 72.8315 475.536 71.9651 475.536C71.0008 475.536 70.2462 476.085 69.7012 477.182C69.1561 478.265 68.8836 479.934 68.8836 482.189ZM71.9651 488.843C72.9433 488.843 73.705 488.301 74.25 487.218C74.795 486.12 75.0675 484.444 75.0675 482.189C75.0675 480.276 74.8928 478.792 74.5435 477.739L69.8898 487.686C70.3929 488.457 71.0847 488.843 71.9651 488.843Z" fill="url(#paint20_linear_175_1901)" fill-opacity="0.6"/>
<path d="M71.9651 499.765C73.4604 499.765 74.5924 500.44 75.361 501.79C76.1436 503.125 76.5349 505.069 76.5349 507.62C76.5349 510.172 76.1436 512.123 75.361 513.473C74.5924 514.823 73.4604 515.498 71.9651 515.498C70.4838 515.498 69.3518 514.823 68.5692 513.473C67.7866 512.123 67.3953 510.172 67.3953 507.62C67.3953 505.084 67.7866 503.14 68.5692 501.79C69.3518 500.44 70.4838 499.765 71.9651 499.765ZM68.8836 507.62C68.8836 509.43 69.0374 510.847 69.3448 511.871L73.9985 502.013C73.5093 501.316 72.8315 500.967 71.9651 500.967C71.0008 500.967 70.2462 501.516 69.7012 502.614C69.1561 503.697 68.8836 505.366 68.8836 507.62ZM71.9651 514.274C72.9433 514.274 73.705 513.732 74.25 512.649C74.795 511.552 75.0675 509.875 75.0675 507.62C75.0675 505.707 74.8928 504.223 74.5435 503.17L69.8898 513.117C70.3929 513.888 71.0847 514.274 71.9651 514.274Z" fill="url(#paint21_linear_175_1901)" fill-opacity="0.6"/>
<path d="M73.2228 539.527H76.3043V540.706H68.3176V539.527H71.8812V527.021L68.4853 529.18L67.8984 528.178L72.0909 525.419H73.2228V539.527Z" fill="url(#paint22_linear_175_1901)" fill-opacity="0.6"/>
<path d="M71.9651 550.628C73.4604 550.628 74.5924 551.303 75.361 552.653C76.1436 553.988 76.5349 555.931 76.5349 558.483C76.5349 561.034 76.1436 562.985 75.361 564.335C74.5924 565.685 73.4604 566.36 71.9651 566.36C70.4838 566.36 69.3518 565.685 68.5692 564.335C67.7866 562.985 67.3953 561.034 67.3953 558.483C67.3953 555.946 67.7866 554.003 68.5692 552.653C69.3518 551.303 70.4838 550.628 71.9651 550.628ZM68.8836 558.483C68.8836 560.293 69.0374 561.709 69.3448 562.733L73.9985 552.875C73.5093 552.178 72.8315 551.829 71.9651 551.829C71.0008 551.829 70.2462 552.378 69.7012 553.476C69.1561 554.559 68.8836 556.228 68.8836 558.483ZM71.9651 565.136C72.9433 565.136 73.705 564.595 74.25 563.512C74.795 562.414 75.0675 560.738 75.0675 558.483C75.0675 556.569 74.8928 555.086 74.5435 554.032L69.8898 563.979C70.3929 564.751 71.0847 565.136 71.9651 565.136Z" fill="url(#paint23_linear_175_1901)" fill-opacity="0.6"/>
<path d="M73.2228 590.389H76.3043V591.569H68.3176V590.389H71.8812V577.884L68.4853 580.042L67.8984 579.041L72.0909 576.281H73.2228V590.389Z" fill="url(#paint24_linear_175_1901)" fill-opacity="0.6"/>
<path d="M73.2228 615.821H76.3043V617H68.3176V615.821H71.8812V603.315L68.4853 605.473L67.8984 604.472L72.0909 601.713H73.2228V615.821Z" fill="url(#paint25_linear_175_1901)" fill-opacity="0.6"/>
<path d="M13.5698 321.747C15.0651 321.747 16.1971 322.422 16.9657 323.772C17.7483 325.107 18.1396 327.05 18.1396 329.602C18.1396 332.154 17.7483 334.104 16.9657 335.454C16.1971 336.804 15.0651 337.479 13.5698 337.479C12.0885 337.479 10.9565 336.804 10.1739 335.454C9.3913 334.104 9 332.154 9 329.602C9 327.065 9.3913 325.122 10.1739 323.772C10.9565 322.422 12.0885 321.747 13.5698 321.747ZM10.4883 329.602C10.4883 331.412 10.6421 332.829 10.9495 333.852L15.6032 323.994C15.114 323.297 14.4363 322.949 13.5698 322.949C12.6055 322.949 11.8509 323.497 11.3059 324.595C10.7608 325.678 10.4883 327.347 10.4883 329.602ZM13.5698 336.255C14.5481 336.255 15.3097 335.714 15.8547 334.631C16.3997 333.533 16.6722 331.857 16.6722 329.602C16.6722 327.688 16.4976 326.205 16.1482 325.152L11.4945 335.098C11.9976 335.87 12.6894 336.255 13.5698 336.255Z" fill="url(#paint26_linear_175_1901)" fill-opacity="0.6"/>
<path d="M13.5698 347.178C15.0651 347.178 16.1971 347.853 16.9657 349.203C17.7483 350.538 18.1396 352.482 18.1396 355.033C18.1396 357.585 17.7483 359.536 16.9657 360.886C16.1971 362.236 15.0651 362.911 13.5698 362.911C12.0885 362.911 10.9565 362.236 10.1739 360.886C9.3913 359.536 9 357.585 9 355.033C9 352.496 9.3913 350.553 10.1739 349.203C10.9565 347.853 12.0885 347.178 13.5698 347.178ZM10.4883 355.033C10.4883 356.843 10.6421 358.26 10.9495 359.283L15.6032 349.426C15.114 348.728 14.4363 348.38 13.5698 348.38C12.6055 348.38 11.8509 348.929 11.3059 350.026C10.7608 351.109 10.4883 352.778 10.4883 355.033ZM13.5698 361.687C14.5481 361.687 15.3097 361.145 15.8547 360.062C16.3997 358.964 16.6722 357.288 16.6722 355.033C16.6722 353.12 16.4976 351.636 16.1482 350.583L11.4945 360.53C11.9976 361.301 12.6894 361.687 13.5698 361.687Z" fill="url(#paint27_linear_175_1901)" fill-opacity="0.6"/>
<path d="M14.8276 386.94H17.909V388.119H9.92235V386.94H13.486V374.434L10.09 376.593L9.5031 375.591L13.6956 372.832H14.8276V386.94Z" fill="url(#paint28_linear_175_1901)" fill-opacity="0.6"/>
<path d="M13.5698 398.041C15.0651 398.041 16.1971 398.716 16.9657 400.066C17.7483 401.401 18.1396 403.344 18.1396 405.896C18.1396 408.447 17.7483 410.398 16.9657 411.748C16.1971 413.098 15.0651 413.773 13.5698 413.773C12.0885 413.773 10.9565 413.098 10.1739 411.748C9.3913 410.398 9 408.447 9 405.896C9 403.359 9.3913 401.416 10.1739 400.066C10.9565 398.716 12.0885 398.041 13.5698 398.041ZM10.4883 405.896C10.4883 407.705 10.6421 409.122 10.9495 410.146L15.6032 400.288C15.114 399.591 14.4363 399.242 13.5698 399.242C12.6055 399.242 11.8509 399.791 11.3059 400.889C10.7608 401.972 10.4883 403.641 10.4883 405.896ZM13.5698 412.549C14.5481 412.549 15.3097 412.008 15.8547 410.925C16.3997 409.827 16.6722 408.151 16.6722 405.896C16.6722 403.982 16.4976 402.498 16.1482 401.445L11.4945 411.392C11.9976 412.163 12.6894 412.549 13.5698 412.549Z" fill="url(#paint29_linear_175_1901)" fill-opacity="0.6"/>
<path d="M14.8276 437.802H17.909V438.982H9.92235V437.802H13.486V425.296L10.09 427.455L9.5031 426.454L13.6956 423.694H14.8276V437.802Z" fill="url(#paint30_linear_175_1901)" fill-opacity="0.6"/>
<path d="M14.8276 463.233H17.909V464.413H9.92235V463.233H13.486V450.728L10.09 452.886L9.5031 451.885L13.6956 449.125H14.8276V463.233Z" fill="url(#paint31_linear_175_1901)" fill-opacity="0.6"/>
<path d="M53.7577 285.215H56.8392V286.394H48.8525V285.215H52.4162V272.709L49.0202 274.868L48.4333 273.866L52.6258 271.107H53.7577V285.215Z" fill="url(#paint32_linear_175_1901)" fill-opacity="0.6"/>
<path d="M52.5 296.316C53.9953 296.316 55.1273 296.991 55.8959 298.341C56.6785 299.676 57.0698 301.619 57.0698 304.171C57.0698 306.722 56.6785 308.673 55.8959 310.023C55.1273 311.373 53.9953 312.048 52.5 312.048C51.0187 312.048 49.8867 311.373 49.1041 310.023C48.3215 308.673 47.9302 306.722 47.9302 304.171C47.9302 301.634 48.3215 299.691 49.1041 298.341C49.8867 296.991 51.0187 296.316 52.5 296.316ZM49.4185 304.171C49.4185 305.981 49.5723 307.397 49.8797 308.421L54.5334 298.563C54.0442 297.866 53.3664 297.517 52.5 297.517C51.5357 297.517 50.7811 298.066 50.2361 299.164C49.691 300.247 49.4185 301.916 49.4185 304.171ZM52.5 310.824C53.4782 310.824 54.2399 310.283 54.7849 309.2C55.3299 308.102 55.6024 306.426 55.6024 304.171C55.6024 302.257 55.4277 300.774 55.0784 299.72L50.4247 309.667C50.9278 310.439 51.6196 310.824 52.5 310.824Z" fill="url(#paint33_linear_175_1901)" fill-opacity="0.6"/>
<path d="M53.7577 336.077H56.8392V337.257H48.8525V336.077H52.4162V323.572L49.0202 325.73L48.4333 324.729L52.6258 321.969H53.7577V336.077Z" fill="url(#paint34_linear_175_1901)" fill-opacity="0.6"/>
<path d="M53.7577 361.509H56.8392V362.688H48.8525V361.509H52.4162V349.003L49.0202 351.161L48.4333 350.16L52.6258 347.401H53.7577V361.509Z" fill="url(#paint35_linear_175_1901)" fill-opacity="0.6"/>
<path d="M52.5 372.609C53.9953 372.609 55.1273 373.284 55.8959 374.634C56.6785 375.969 57.0698 377.913 57.0698 380.464C57.0698 383.016 56.6785 384.967 55.8959 386.317C55.1273 387.667 53.9953 388.342 52.5 388.342C51.0187 388.342 49.8867 387.667 49.1041 386.317C48.3215 384.967 47.9302 383.016 47.9302 380.464C47.9302 377.928 48.3215 375.984 49.1041 374.634C49.8867 373.284 51.0187 372.609 52.5 372.609ZM49.4185 380.464C49.4185 382.274 49.5723 383.691 49.8797 384.715L54.5334 374.857C54.0442 374.16 53.3664 373.811 52.5 373.811C51.5357 373.811 50.7811 374.36 50.2361 375.458C49.691 376.541 49.4185 378.21 49.4185 380.464ZM52.5 387.118C53.4782 387.118 54.2399 386.576 54.7849 385.493C55.3299 384.396 55.6024 382.719 55.6024 380.464C55.6024 378.551 55.4277 377.067 55.0784 376.014L50.4247 385.961C50.9278 386.732 51.6196 387.118 52.5 387.118Z" fill="url(#paint36_linear_175_1901)" fill-opacity="0.6"/>
<path d="M53.7577 412.371H56.8392V413.55H48.8525V412.371H52.4162V399.865L49.0202 402.024L48.4333 401.022L52.6258 398.263H53.7577V412.371Z" fill="url(#paint37_linear_175_1901)" fill-opacity="0.6"/>
<path d="M53.7577 437.802H56.8392V438.982H48.8525V437.802H52.4162V425.296L49.0202 427.455L48.4333 426.454L52.6258 423.694H53.7577V437.802Z" fill="url(#paint38_linear_175_1901)" fill-opacity="0.6"/>
<path d="M52.5 448.903C53.9953 448.903 55.1273 449.578 55.8959 450.928C56.6785 452.263 57.0698 454.206 57.0698 456.758C57.0698 459.31 56.6785 461.26 55.8959 462.61C55.1273 463.96 53.9953 464.635 52.5 464.635C51.0187 464.635 49.8867 463.96 49.1041 462.61C48.3215 461.26 47.9302 459.31 47.9302 456.758C47.9302 454.221 48.3215 452.278 49.1041 450.928C49.8867 449.578 51.0187 448.903 52.5 448.903ZM49.4185 456.758C49.4185 458.568 49.5723 459.985 49.8797 461.008L54.5334 451.15C54.0442 450.453 53.3664 450.105 52.5 450.105C51.5357 450.105 50.7811 450.653 50.2361 451.751C49.691 452.834 49.4185 454.503 49.4185 456.758ZM52.5 463.411C53.4782 463.411 54.2399 462.87 54.7849 461.787C55.3299 460.689 55.6024 459.013 55.6024 456.758C55.6024 454.844 55.4277 453.361 55.0784 452.308L50.4247 462.254C50.9278 463.026 51.6196 463.411 52.5 463.411Z" fill="url(#paint39_linear_175_1901)" fill-opacity="0.6"/>
<path d="M53.7577 488.665H56.8392V489.844H48.8525V488.665H52.4162V476.159L49.0202 478.317L48.4333 477.316L52.6258 474.557H53.7577V488.665Z" fill="url(#paint40_linear_175_1901)" fill-opacity="0.6"/>
<path d="M52.5 499.765C53.9953 499.765 55.1273 500.44 55.8959 501.79C56.6785 503.125 57.0698 505.069 57.0698 507.62C57.0698 510.172 56.6785 512.123 55.8959 513.473C55.1273 514.823 53.9953 515.498 52.5 515.498C51.0187 515.498 49.8867 514.823 49.1041 513.473C48.3215 512.123 47.9302 510.172 47.9302 507.62C47.9302 505.084 48.3215 503.14 49.1041 501.79C49.8867 500.44 51.0187 499.765 52.5 499.765ZM49.4185 507.62C49.4185 509.43 49.5723 510.847 49.8797 511.871L54.5334 502.013C54.0442 501.316 53.3664 500.967 52.5 500.967C51.5357 500.967 50.7811 501.516 50.2361 502.614C49.691 503.697 49.4185 505.366 49.4185 507.62ZM52.5 514.274C53.4782 514.274 54.2399 513.732 54.7849 512.649C55.3299 511.552 55.6024 509.875 55.6024 507.62C55.6024 505.707 55.4277 504.223 55.0784 503.17L50.4247 513.117C50.9278 513.888 51.6196 514.274 52.5 514.274Z" fill="url(#paint41_linear_175_1901)" fill-opacity="0.6"/>
<path d="M91.4302 270.885C92.9255 270.885 94.0575 271.56 94.8261 272.91C95.6087 274.245 96 276.188 96 278.74C96 281.291 95.6087 283.242 94.8261 284.592C94.0575 285.942 92.9255 286.617 91.4302 286.617C89.9489 286.617 88.8169 285.942 88.0343 284.592C87.2517 283.242 86.8604 281.291 86.8604 278.74C86.8604 276.203 87.2517 274.259 88.0343 272.91C88.8169 271.56 89.9489 270.885 91.4302 270.885ZM88.3487 278.74C88.3487 280.549 88.5024 281.966 88.8099 282.99L93.4636 273.132C92.9744 272.435 92.2966 272.086 91.4302 272.086C90.4659 272.086 89.7113 272.635 89.1663 273.733C88.6212 274.816 88.3487 276.485 88.3487 278.74ZM91.4302 285.393C92.4084 285.393 93.1701 284.852 93.7151 283.769C94.2601 282.671 94.5326 280.995 94.5326 278.74C94.5326 276.826 94.3579 275.342 94.0086 274.289L89.3549 284.236C89.858 285.007 90.5498 285.393 91.4302 285.393Z" fill="url(#paint42_linear_175_1901)" fill-opacity="0.6"/>
<path d="M92.6879 310.646H95.7694V311.826H87.7827V310.646H91.3463V298.14L87.9504 300.299L87.3635 299.298L91.556 296.538H92.6879V310.646Z" fill="url(#paint43_linear_175_1901)" fill-opacity="0.6"/>
<path d="M92.6879 336.077H95.7694V337.257H87.7827V336.077H91.3463V323.572L87.9504 325.73L87.3635 324.729L91.556 321.969H92.6879V336.077Z" fill="url(#paint44_linear_175_1901)" fill-opacity="0.6"/>
<path d="M91.4302 347.178C92.9255 347.178 94.0575 347.853 94.8261 349.203C95.6087 350.538 96 352.482 96 355.033C96 357.585 95.6087 359.536 94.8261 360.886C94.0575 362.236 92.9255 362.911 91.4302 362.911C89.9489 362.911 88.8169 362.236 88.0343 360.886C87.2517 359.536 86.8604 357.585 86.8604 355.033C86.8604 352.496 87.2517 350.553 88.0343 349.203C88.8169 347.853 89.9489 347.178 91.4302 347.178ZM88.3487 355.033C88.3487 356.843 88.5024 358.26 88.8099 359.283L93.4636 349.426C92.9744 348.728 92.2966 348.38 91.4302 348.38C90.4659 348.38 89.7113 348.929 89.1663 350.026C88.6212 351.109 88.3487 352.778 88.3487 355.033ZM91.4302 361.687C92.4084 361.687 93.1701 361.145 93.7151 360.062C94.2601 358.964 94.5326 357.288 94.5326 355.033C94.5326 353.12 94.3579 351.636 94.0086 350.583L89.3549 360.53C89.858 361.301 90.5498 361.687 91.4302 361.687Z" fill="url(#paint45_linear_175_1901)" fill-opacity="0.6"/>
<path d="M91.4302 372.609C92.9255 372.609 94.0575 373.284 94.8261 374.634C95.6087 375.969 96 377.913 96 380.464C96 383.016 95.6087 384.967 94.8261 386.317C94.0575 387.667 92.9255 388.342 91.4302 388.342C89.9489 388.342 88.8169 387.667 88.0343 386.317C87.2517 384.967 86.8604 383.016 86.8604 380.464C86.8604 377.928 87.2517 375.984 88.0343 374.634C88.8169 373.284 89.9489 372.609 91.4302 372.609ZM88.3487 380.464C88.3487 382.274 88.5024 383.691 88.8099 384.715L93.4636 374.857C92.9744 374.16 92.2966 373.811 91.4302 373.811C90.4659 373.811 89.7113 374.36 89.1663 375.458C88.6212 376.541 88.3487 378.21 88.3487 380.464ZM91.4302 387.118C92.4084 387.118 93.1701 386.576 93.7151 385.493C94.2601 384.396 94.5326 382.719 94.5326 380.464C94.5326 378.551 94.3579 377.067 94.0086 376.014L89.3549 385.961C89.858 386.732 90.5498 387.118 91.4302 387.118Z" fill="url(#paint46_linear_175_1901)" fill-opacity="0.6"/>
<g opacity="0.6">
<path d="M919.93 -75.7686C921.356 -75.7686 922.436 -75.1208 923.17 -73.8253C923.916 -72.544 924.29 -70.6791 924.29 -68.2304C924.29 -65.7818 923.916 -63.9097 923.17 -62.6142C922.436 -61.3187 921.356 -60.6709 919.93 -60.6709C918.517 -60.6709 917.437 -61.3187 916.69 -62.6142C915.943 -63.9097 915.57 -65.7818 915.57 -68.2304C915.57 -70.6648 915.943 -72.5298 916.69 -73.8253C917.437 -75.1208 918.517 -75.7686 919.93 -75.7686ZM916.99 -68.2304C916.99 -66.4936 917.137 -65.134 917.43 -64.1517L921.87 -73.6117C921.403 -74.2809 920.756 -74.6154 919.93 -74.6154C919.01 -74.6154 918.29 -74.0887 917.77 -73.0352C917.25 -71.9959 916.99 -70.3943 916.99 -68.2304ZM919.93 -61.8454C920.863 -61.8454 921.59 -62.365 922.11 -63.4043C922.63 -64.4578 922.89 -66.0665 922.89 -68.2304C922.89 -70.0669 922.723 -71.4905 922.39 -72.5013L917.95 -62.9558C918.43 -62.2156 919.09 -61.8454 919.93 -61.8454Z" fill="url(#paint47_linear_175_1901)"/>
<path d="M921.13 -37.6111H924.07V-36.4793H916.45V-37.6111H919.85V-49.6123L916.61 -47.5409L916.05 -48.5019L920.05 -51.1499H921.13V-37.6111Z" fill="url(#paint48_linear_175_1901)"/>
<path d="M919.93 -26.9582C921.356 -26.9582 922.436 -26.3105 923.17 -25.015C923.916 -23.7337 924.29 -21.8687 924.29 -19.4201C924.29 -16.9714 923.916 -15.0994 923.17 -13.8039C922.436 -12.5084 921.356 -11.8606 919.93 -11.8606C918.517 -11.8606 917.437 -12.5084 916.69 -13.8039C915.943 -15.0994 915.57 -16.9714 915.57 -19.4201C915.57 -21.8545 915.943 -23.7195 916.69 -25.015C917.437 -26.3105 918.517 -26.9582 919.93 -26.9582ZM916.99 -19.4201C916.99 -17.6833 917.137 -16.3237 917.43 -15.3414L921.87 -24.8014C921.403 -25.4705 920.756 -25.8051 919.93 -25.8051C919.01 -25.8051 918.29 -25.2784 917.77 -24.2249C917.25 -23.1856 916.99 -21.584 916.99 -19.4201ZM919.93 -13.0351C920.863 -13.0351 921.59 -13.5547 922.11 -14.594C922.63 -15.6475 922.89 -17.2562 922.89 -19.4201C922.89 -21.2566 922.723 -22.6802 922.39 -23.691L917.95 -14.1455C918.43 -13.4052 919.09 -13.0351 919.93 -13.0351Z" fill="url(#paint49_linear_175_1901)"/>
<path d="M921.13 11.1992H924.07V12.331H916.45V11.1992H919.85V-0.802019L916.61 1.26937L916.05 0.308417L920.05 -2.33954H921.13V11.1992Z" fill="url(#paint50_linear_175_1901)"/>
<path d="M921.13 35.6044H924.07V36.7362H916.45V35.6044H919.85V23.6031L916.61 25.6745L916.05 24.7136L920.05 22.0656H921.13V35.6044Z" fill="url(#paint51_linear_175_1901)"/>
<path d="M919.93 46.2572C921.356 46.2572 922.436 46.905 923.17 48.2005C923.916 49.4818 924.29 51.3467 924.29 53.7954C924.29 56.244 923.916 58.1161 923.17 59.4116C922.436 60.7071 921.356 61.3549 919.93 61.3549C918.517 61.3549 917.437 60.7071 916.69 59.4116C915.943 58.1161 915.57 56.244 915.57 53.7954C915.57 51.361 915.943 49.496 916.69 48.2005C917.437 46.905 918.517 46.2572 919.93 46.2572ZM916.99 53.7954C916.99 55.5322 917.137 56.8918 917.43 57.8741L921.87 48.414C921.403 47.7449 920.756 47.4104 919.93 47.4104C919.01 47.4104 918.29 47.9371 917.77 48.9906C917.25 50.0299 916.99 51.6314 916.99 53.7954ZM919.93 60.1804C920.863 60.1804 921.59 59.6608 922.11 58.6215C922.63 57.568 922.89 55.9593 922.89 53.7954C922.89 51.9589 922.723 50.5352 922.39 49.5245L917.95 59.0699C918.43 59.8102 919.09 60.1804 919.93 60.1804Z" fill="url(#paint52_linear_175_1901)"/>
<path d="M921.13 84.4147H924.07V85.5465H916.45V84.4147H919.85V72.4135L916.61 74.4848L916.05 73.5239L920.05 70.8759H921.13V84.4147Z" fill="url(#paint53_linear_175_1901)"/>
<path d="M919.93 95.0675C921.356 95.0675 922.436 95.7153 923.17 97.0108C923.916 98.2921 924.29 100.157 924.29 102.606C924.29 105.054 923.916 106.926 923.17 108.222C922.436 109.517 921.356 110.165 919.93 110.165C918.517 110.165 917.437 109.517 916.69 108.222C915.943 106.926 915.57 105.054 915.57 102.606C915.57 100.171 915.943 98.3063 916.69 97.0108C917.437 95.7153 918.517 95.0675 919.93 95.0675ZM916.99 102.606C916.99 104.343 917.137 105.702 917.43 106.684L921.87 97.2243C921.403 96.5552 920.756 96.2207 919.93 96.2207C919.01 96.2207 918.29 96.7474 917.77 97.8009C917.25 98.8402 916.99 100.442 916.99 102.606ZM919.93 108.991C920.863 108.991 921.59 108.471 922.11 107.432C922.63 106.378 922.89 104.77 922.89 102.606C922.89 100.769 922.723 99.3456 922.39 98.3348L917.95 107.88C918.43 108.621 919.09 108.991 919.93 108.991Z" fill="url(#paint54_linear_175_1901)"/>
<path d="M919.93 119.473C921.356 119.473 922.436 120.12 923.17 121.416C923.916 122.697 924.29 124.562 924.29 127.011C924.29 129.459 923.916 131.332 923.17 132.627C922.436 133.923 921.356 134.57 919.93 134.57C918.517 134.57 917.437 133.923 916.69 132.627C915.943 131.332 915.57 129.459 915.57 127.011C915.57 124.576 915.943 122.711 916.69 121.416C917.437 120.12 918.517 119.473 919.93 119.473ZM916.99 127.011C916.99 128.748 917.137 130.107 917.43 131.09L921.87 121.63C921.403 120.96 920.756 120.626 919.93 120.626C919.01 120.626 918.29 121.153 917.77 122.206C917.25 123.245 916.99 124.847 916.99 127.011ZM919.93 133.396C920.863 133.396 921.59 132.876 922.11 131.837C922.63 130.783 922.89 129.175 922.89 127.011C922.89 125.174 922.723 123.751 922.39 122.74L917.95 132.285C918.43 133.026 919.09 133.396 919.93 133.396Z" fill="url(#paint55_linear_175_1901)"/>
<path d="M921.13 157.63H924.07V158.762H916.45V157.63H919.85V145.629L916.61 147.7L916.05 146.739L920.05 144.091H921.13V157.63Z" fill="url(#paint56_linear_175_1901)"/>
<path d="M919.93 168.283C921.356 168.283 922.436 168.931 923.17 170.226C923.916 171.508 924.29 173.372 924.29 175.821C924.29 178.27 923.916 180.142 923.17 181.437C922.436 182.733 921.356 183.381 919.93 183.381C918.517 183.381 917.437 182.733 916.69 181.437C915.943 180.142 915.57 178.27 915.57 175.821C915.57 173.387 915.943 171.522 916.69 170.226C917.437 168.931 918.517 168.283 919.93 168.283ZM916.99 175.821C916.99 177.558 917.137 178.918 917.43 179.9L921.87 170.44C921.403 169.771 920.756 169.436 919.93 169.436C919.01 169.436 918.29 169.963 917.77 171.016C917.25 172.056 916.99 173.657 916.99 175.821ZM919.93 182.206C920.863 182.206 921.59 181.687 922.11 180.647C922.63 179.594 922.89 177.985 922.89 175.821C922.89 173.985 922.723 172.561 922.39 171.55L917.95 181.096C918.43 181.836 919.09 182.206 919.93 182.206Z" fill="url(#paint57_linear_175_1901)"/>
<path d="M921.13 206.44H924.07V207.572H916.45V206.44H919.85V194.439L916.61 196.511L916.05 195.55L920.05 192.902H921.13V206.44Z" fill="url(#paint58_linear_175_1901)"/>
<path d="M921.13 230.846H924.07V231.977H916.45V230.846H919.85V218.844L916.61 220.916L916.05 219.955L920.05 217.307H921.13V230.846Z" fill="url(#paint59_linear_175_1901)"/>
<path d="M957.07 -26.9582C958.497 -26.9582 959.577 -26.3105 960.31 -25.015C961.057 -23.7337 961.43 -21.8687 961.43 -19.4201C961.43 -16.9714 961.057 -15.0994 960.31 -13.8039C959.577 -12.5084 958.497 -11.8606 957.07 -11.8606C955.657 -11.8606 954.577 -12.5084 953.83 -13.8039C953.084 -15.0994 952.71 -16.9714 952.71 -19.4201C952.71 -21.8545 953.084 -23.7195 953.83 -25.015C954.577 -26.3105 955.657 -26.9582 957.07 -26.9582ZM954.13 -19.4201C954.13 -17.6833 954.277 -16.3237 954.57 -15.3414L959.01 -24.8014C958.543 -25.4705 957.897 -25.8051 957.07 -25.8051C956.15 -25.8051 955.43 -25.2784 954.91 -24.2249C954.39 -23.1856 954.13 -21.584 954.13 -19.4201ZM957.07 -13.0351C958.003 -13.0351 958.73 -13.5547 959.25 -14.594C959.77 -15.6475 960.03 -17.2562 960.03 -19.4201C960.03 -21.2566 959.863 -22.6802 959.53 -23.691L955.09 -14.1455C955.57 -13.4052 956.23 -13.0351 957.07 -13.0351Z" fill="url(#paint60_linear_175_1901)"/>
<path d="M958.27 11.1992H961.21V12.331H953.59V11.1992H956.99V-0.802019L953.75 1.26937L953.19 0.308417L957.19 -2.33954H958.27V11.1992Z" fill="url(#paint61_linear_175_1901)"/>
<path d="M957.07 21.8521C958.497 21.8521 959.577 22.4998 960.31 23.7953C961.057 25.0766 961.43 26.9416 961.43 29.3902C961.43 31.8389 961.057 33.7109 960.31 35.0064C959.577 36.302 958.497 36.9497 957.07 36.9497C955.657 36.9497 954.577 36.302 953.83 35.0064C953.084 33.7109 952.71 31.8389 952.71 29.3902C952.71 26.9558 953.084 25.0908 953.83 23.7953C954.577 22.4998 955.657 21.8521 957.07 21.8521ZM954.13 29.3902C954.13 31.127 954.277 32.4866 954.57 33.4689L959.01 24.0089C958.543 23.3398 957.897 23.0052 957.07 23.0052C956.15 23.0052 955.43 23.532 954.91 24.5854C954.39 25.6247 954.13 27.2263 954.13 29.3902ZM957.07 35.7752C958.003 35.7752 958.73 35.2556 959.25 34.2163C959.77 33.1628 960.03 31.5541 960.03 29.3902C960.03 27.5537 959.863 26.1301 959.53 25.1193L955.09 34.6648C955.57 35.4051 956.23 35.7752 957.07 35.7752Z" fill="url(#paint62_linear_175_1901)"/>
<path d="M957.07 46.2572C958.497 46.2572 959.577 46.905 960.31 48.2005C961.057 49.4818 961.43 51.3467 961.43 53.7954C961.43 56.244 961.057 58.1161 960.31 59.4116C959.577 60.7071 958.497 61.3549 957.07 61.3549C955.657 61.3549 954.577 60.7071 953.83 59.4116C953.084 58.1161 952.71 56.244 952.71 53.7954C952.71 51.361 953.084 49.496 953.83 48.2005C954.577 46.905 955.657 46.2572 957.07 46.2572ZM954.13 53.7954C954.13 55.5322 954.277 56.8918 954.57 57.8741L959.01 48.414C958.543 47.7449 957.897 47.4104 957.07 47.4104C956.15 47.4104 955.43 47.9371 954.91 48.9906C954.39 50.0299 954.13 51.6314 954.13 53.7954ZM957.07 60.1804C958.003 60.1804 958.73 59.6608 959.25 58.6215C959.77 57.568 960.03 55.9593 960.03 53.7954C960.03 51.9589 959.863 50.5352 959.53 49.5245L955.09 59.0699C955.57 59.8102 956.23 60.1804 957.07 60.1804Z" fill="url(#paint63_linear_175_1901)"/>
<path d="M958.27 84.4147H961.21V85.5465H953.59V84.4147H956.99V72.4135L953.75 74.4848L953.19 73.5239L957.19 70.8759H958.27V84.4147Z" fill="url(#paint64_linear_175_1901)"/>
<path d="M957.07 95.0675C958.497 95.0675 959.577 95.7153 960.31 97.0108C961.057 98.2921 961.43 100.157 961.43 102.606C961.43 105.054 961.057 106.926 960.31 108.222C959.577 109.517 958.497 110.165 957.07 110.165C955.657 110.165 954.577 109.517 953.83 108.222C953.084 106.926 952.71 105.054 952.71 102.606C952.71 100.171 953.084 98.3063 953.83 97.0108C954.577 95.7153 955.657 95.0675 957.07 95.0675ZM954.13 102.606C954.13 104.343 954.277 105.702 954.57 106.684L959.01 97.2243C958.543 96.5552 957.897 96.2207 957.07 96.2207C956.15 96.2207 955.43 96.7474 954.91 97.8009C954.39 98.8402 954.13 100.442 954.13 102.606ZM957.07 108.991C958.003 108.991 958.73 108.471 959.25 107.432C959.77 106.378 960.03 104.77 960.03 102.606C960.03 100.769 959.863 99.3456 959.53 98.3348L955.09 107.88C955.57 108.621 956.23 108.991 957.07 108.991Z" fill="url(#paint65_linear_175_1901)"/>
<path d="M958.27 133.225H961.21V134.357H953.59V133.225H956.99V121.224L953.75 123.295L953.19 122.334L957.19 119.686H958.27V133.225Z" fill="url(#paint66_linear_175_1901)"/>
<path d="M957.07 143.878C958.497 143.878 959.577 144.526 960.31 145.821C961.057 147.102 961.43 148.967 961.43 151.416C961.43 153.865 961.057 155.737 960.31 157.032C959.577 158.328 958.497 158.975 957.07 158.975C955.657 158.975 954.577 158.328 953.83 157.032C953.084 155.737 952.71 153.865 952.71 151.416C952.71 148.982 953.084 147.117 953.83 145.821C954.577 144.526 955.657 143.878 957.07 143.878ZM954.13 151.416C954.13 153.153 954.277 154.512 954.57 155.495L959.01 146.035C958.543 145.366 957.897 145.031 957.07 145.031C956.15 145.031 955.43 145.558 954.91 146.611C954.39 147.65 954.13 149.252 954.13 151.416ZM957.07 157.801C958.003 157.801 958.73 157.281 959.25 156.242C959.77 155.189 960.03 153.58 960.03 151.416C960.03 149.579 959.863 148.156 959.53 147.145L955.09 156.691C955.57 157.431 956.23 157.801 957.07 157.801Z" fill="url(#paint67_linear_175_1901)"/>
<path d="M957.07 168.283C958.497 168.283 959.577 168.931 960.31 170.226C961.057 171.508 961.43 173.372 961.43 175.821C961.43 178.27 961.057 180.142 960.31 181.437C959.577 182.733 958.497 183.381 957.07 183.381C955.657 183.381 954.577 182.733 953.83 181.437C953.084 180.142 952.71 178.27 952.71 175.821C952.71 173.387 953.084 171.522 953.83 170.226C954.577 168.931 955.657 168.283 957.07 168.283ZM954.13 175.821C954.13 177.558 954.277 178.918 954.57 179.9L959.01 170.44C958.543 169.771 957.897 169.436 957.07 169.436C956.15 169.436 955.43 169.963 954.91 171.016C954.39 172.056 954.13 173.657 954.13 175.821ZM957.07 182.206C958.003 182.206 958.73 181.687 959.25 180.647C959.77 179.594 960.03 177.985 960.03 175.821C960.03 173.985 959.863 172.561 959.53 171.55L955.09 181.096C955.57 181.836 956.23 182.206 957.07 182.206Z" fill="url(#paint68_linear_175_1901)"/>
<path d="M958.27 206.44H961.21V207.572H953.59V206.44H956.99V194.439L953.75 196.511L953.19 195.55L957.19 192.902H958.27V206.44Z" fill="url(#paint69_linear_175_1901)"/>
<path d="M957.07 217.093C958.497 217.093 959.577 217.741 960.31 219.037C961.057 220.318 961.43 222.183 961.43 224.631C961.43 227.08 961.057 228.952 960.31 230.248C959.577 231.543 958.497 232.191 957.07 232.191C955.657 232.191 954.577 231.543 953.83 230.248C953.084 228.952 952.71 227.08 952.71 224.631C952.71 222.197 953.084 220.332 953.83 219.037C954.577 217.741 955.657 217.093 957.07 217.093ZM954.13 224.631C954.13 226.368 954.277 227.728 954.57 228.71L959.01 219.25C958.543 218.581 957.897 218.246 957.07 218.246C956.15 218.246 955.43 218.773 954.91 219.827C954.39 220.866 954.13 222.468 954.13 224.631ZM957.07 231.016C958.003 231.016 958.73 230.497 959.25 229.458C959.77 228.404 960.03 226.795 960.03 224.631C960.03 222.795 959.863 221.371 959.53 220.361L955.09 229.906C955.57 230.646 956.23 231.016 957.07 231.016Z" fill="url(#paint70_linear_175_1901)"/>
<path d="M958.27 255.251H961.21V256.383H953.59V255.251H956.99V243.25L953.75 245.321L953.19 244.36L957.19 241.712H958.27V255.251Z" fill="url(#paint71_linear_175_1901)"/>
<path d="M958.27 279.656H961.21V280.788H953.59V279.656H956.99V267.655L953.75 269.726L953.19 268.765L957.19 266.117H958.27V279.656Z" fill="url(#paint72_linear_175_1901)"/>
<path d="M901.36 -2.55309C902.786 -2.55309 903.866 -1.90533 904.599 -0.609821C905.346 0.67145 905.719 2.53641 905.719 4.98506C905.719 7.43371 905.346 9.30578 904.599 10.6013C903.866 11.8968 902.786 12.5446 901.36 12.5446C899.946 12.5446 898.867 11.8968 898.12 10.6013C897.373 9.30578 897 7.43371 897 4.98506C897 2.55064 897.373 0.685686 898.12 -0.609821C898.867 -1.90533 899.946 -2.55309 901.36 -2.55309ZM898.42 4.98506C898.42 6.72189 898.567 8.08146 898.86 9.06377L903.3 -0.396276C902.833 -1.06538 902.186 -1.39994 901.36 -1.39994C900.44 -1.39994 899.72 -0.873199 899.2 0.18029C898.68 1.21954 898.42 2.82114 898.42 4.98506ZM901.36 11.3701C902.293 11.3701 903.02 10.8504 903.54 9.81117C904.06 8.75768 904.319 7.14898 904.319 4.98506C904.319 3.14857 904.153 1.72493 903.82 0.714151L899.38 10.2596C899.86 10.9999 900.52 11.3701 901.36 11.3701Z" fill="url(#paint73_linear_175_1901)"/>
<path d="M901.36 21.8521C902.786 21.8521 903.866 22.4998 904.599 23.7953C905.346 25.0766 905.719 26.9416 905.719 29.3902C905.719 31.8389 905.346 33.7109 904.599 35.0064C903.866 36.302 902.786 36.9497 901.36 36.9497C899.946 36.9497 898.867 36.302 898.12 35.0064C897.373 33.7109 897 31.8389 897 29.3902C897 26.9558 897.373 25.0908 898.12 23.7953C898.867 22.4998 899.946 21.8521 901.36 21.8521ZM898.42 29.3902C898.42 31.127 898.567 32.4866 898.86 33.4689L903.3 24.0089C902.833 23.3398 902.186 23.0052 901.36 23.0052C900.44 23.0052 899.72 23.532 899.2 24.5854C898.68 25.6247 898.42 27.2263 898.42 29.3902ZM901.36 35.7752C902.293 35.7752 903.02 35.2556 903.54 34.2163C904.06 33.1628 904.319 31.5541 904.319 29.3902C904.319 27.5537 904.153 26.1301 903.82 25.1193L899.38 34.6648C899.86 35.4051 900.52 35.7752 901.36 35.7752Z" fill="url(#paint74_linear_175_1901)"/>
<path d="M902.56 60.0095H905.499V61.1413H897.88V60.0095H901.28V48.0083L898.04 50.0797L897.48 49.1187L901.48 46.4708H902.56V60.0095Z" fill="url(#paint75_linear_175_1901)"/>
<path d="M901.36 70.6624C902.786 70.6624 903.866 71.3101 904.599 72.6057C905.346 73.8869 905.719 75.7519 905.719 78.2005C905.719 80.6492 905.346 82.5213 904.599 83.8168C903.866 85.1123 902.786 85.76 901.36 85.76C899.946 85.76 898.867 85.1123 898.12 83.8168C897.373 82.5213 897 80.6492 897 78.2005C897 75.7661 897.373 73.9012 898.12 72.6057C898.867 71.3101 899.946 70.6624 901.36 70.6624ZM898.42 78.2005C898.42 79.9374 898.567 81.2969 898.86 82.2792L903.3 72.8192C902.833 72.1501 902.186 71.8155 901.36 71.8155C900.44 71.8155 899.72 72.3423 899.2 73.3958C898.68 74.435 898.42 76.0366 898.42 78.2005ZM901.36 84.5855C902.293 84.5855 903.02 84.0659 903.54 83.0266C904.06 81.9732 904.319 80.3645 904.319 78.2005C904.319 76.364 904.153 74.9404 903.82 73.9296L899.38 83.4751C899.86 84.2154 900.52 84.5855 901.36 84.5855Z" fill="url(#paint76_linear_175_1901)"/>
<path d="M902.56 108.82H905.499V109.952H897.88V108.82H901.28V96.8186L898.04 98.89L897.48 97.929L901.48 95.2811H902.56V108.82Z" fill="url(#paint77_linear_175_1901)"/>
<path d="M902.56 133.225H905.499V134.357H897.88V133.225H901.28V121.224L898.04 123.295L897.48 122.334L901.48 119.686H902.56V133.225Z" fill="url(#paint78_linear_175_1901)"/>
<path d="M939.7 -37.6111H942.64V-36.4793H935.02V-37.6111H938.42V-49.6123L935.18 -47.5409L934.62 -48.5019L938.62 -51.1499H939.7V-37.6111Z" fill="url(#paint79_linear_175_1901)"/>
<path d="M938.5 -26.9582C939.927 -26.9582 941.006 -26.3105 941.74 -25.015C942.486 -23.7337 942.86 -21.8687 942.86 -19.4201C942.86 -16.9714 942.486 -15.0994 941.74 -13.8039C941.006 -12.5084 939.927 -11.8606 938.5 -11.8606C937.087 -11.8606 936.007 -12.5084 935.26 -13.8039C934.514 -15.0994 934.14 -16.9714 934.14 -19.4201C934.14 -21.8545 934.514 -23.7195 935.26 -25.015C936.007 -26.3105 937.087 -26.9582 938.5 -26.9582ZM935.56 -19.4201C935.56 -17.6833 935.707 -16.3237 936 -15.3414L940.44 -24.8014C939.973 -25.4705 939.327 -25.8051 938.5 -25.8051C937.58 -25.8051 936.86 -25.2784 936.34 -24.2249C935.82 -23.1856 935.56 -21.584 935.56 -19.4201ZM938.5 -13.0351C939.433 -13.0351 940.16 -13.5547 940.68 -14.594C941.2 -15.6475 941.46 -17.2562 941.46 -19.4201C941.46 -21.2566 941.293 -22.6802 940.96 -23.691L936.52 -14.1455C937 -13.4052 937.66 -13.0351 938.5 -13.0351Z" fill="url(#paint80_linear_175_1901)"/>
<path d="M939.7 11.1992H942.64V12.331H935.02V11.1992H938.42V-0.802019L935.18 1.26937L934.62 0.308417L938.62 -2.33954H939.7V11.1992Z" fill="url(#paint81_linear_175_1901)"/>
<path d="M939.7 35.6044H942.64V36.7362H935.02V35.6044H938.42V23.6031L935.18 25.6745L934.62 24.7136L938.62 22.0656H939.7V35.6044Z" fill="url(#paint82_linear_175_1901)"/>
<path d="M938.5 46.2572C939.927 46.2572 941.006 46.905 941.74 48.2005C942.486 49.4818 942.86 51.3467 942.86 53.7954C942.86 56.244 942.486 58.1161 941.74 59.4116C941.006 60.7071 939.927 61.3549 938.5 61.3549C937.087 61.3549 936.007 60.7071 935.26 59.4116C934.514 58.1161 934.14 56.244 934.14 53.7954C934.14 51.361 934.514 49.496 935.26 48.2005C936.007 46.905 937.087 46.2572 938.5 46.2572ZM935.56 53.7954C935.56 55.5322 935.707 56.8918 936 57.8741L940.44 48.414C939.973 47.7449 939.327 47.4104 938.5 47.4104C937.58 47.4104 936.86 47.9371 936.34 48.9906C935.82 50.0299 935.56 51.6314 935.56 53.7954ZM938.5 60.1804C939.433 60.1804 940.16 59.6608 940.68 58.6215C941.2 57.568 941.46 55.9593 941.46 53.7954C941.46 51.9589 941.293 50.5352 940.96 49.5245L936.52 59.0699C937 59.8102 937.66 60.1804 938.5 60.1804Z" fill="url(#paint83_linear_175_1901)"/>
<path d="M939.7 84.4147H942.64V85.5465H935.02V84.4147H938.42V72.4135L935.18 74.4848L934.62 73.5239L938.62 70.8759H939.7V84.4147Z" fill="url(#paint84_linear_175_1901)"/>
<path d="M939.7 108.82H942.64V109.952H935.02V108.82H938.42V96.8186L935.18 98.89L934.62 97.929L938.62 95.2811H939.7V108.82Z" fill="url(#paint85_linear_175_1901)"/>
<path d="M938.5 119.473C939.927 119.473 941.006 120.12 941.74 121.416C942.486 122.697 942.86 124.562 942.86 127.011C942.86 129.459 942.486 131.332 941.74 132.627C941.006 133.923 939.927 134.57 938.5 134.57C937.087 134.57 936.007 133.923 935.26 132.627C934.514 131.332 934.14 129.459 934.14 127.011C934.14 124.576 934.514 122.711 935.26 121.416C936.007 120.12 937.087 119.473 938.5 119.473ZM935.56 127.011C935.56 128.748 935.707 130.107 936 131.09L940.44 121.63C939.973 120.96 939.327 120.626 938.5 120.626C937.58 120.626 936.86 121.153 936.34 122.206C935.82 123.245 935.56 124.847 935.56 127.011ZM938.5 133.396C939.433 133.396 940.16 132.876 940.68 131.837C941.2 130.783 941.46 129.175 941.46 127.011C941.46 125.174 941.293 123.751 940.96 122.74L936.52 132.285C937 133.026 937.66 133.396 938.5 133.396Z" fill="url(#paint86_linear_175_1901)"/>
<path d="M939.7 157.63H942.64V158.762H935.02V157.63H938.42V145.629L935.18 147.7L934.62 146.739L938.62 144.091H939.7V157.63Z" fill="url(#paint87_linear_175_1901)"/>
<path d="M938.5 168.283C939.927 168.283 941.006 168.931 941.74 170.226C942.486 171.508 942.86 173.372 942.86 175.821C942.86 178.27 942.486 180.142 941.74 181.437C941.006 182.733 939.927 183.381 938.5 183.381C937.087 183.381 936.007 182.733 935.26 181.437C934.514 180.142 934.14 178.27 934.14 175.821C934.14 173.387 934.514 171.522 935.26 170.226C936.007 168.931 937.087 168.283 938.5 168.283ZM935.56 175.821C935.56 177.558 935.707 178.918 936 179.9L940.44 170.44C939.973 169.771 939.327 169.436 938.5 169.436C937.58 169.436 936.86 169.963 936.34 171.016C935.82 172.056 935.56 173.657 935.56 175.821ZM938.5 182.206C939.433 182.206 940.16 181.687 940.68 180.647C941.2 179.594 941.46 177.985 941.46 175.821C941.46 173.985 941.293 172.561 940.96 171.55L936.52 181.096C937 181.836 937.66 182.206 938.5 182.206Z" fill="url(#paint88_linear_175_1901)"/>
<path d="M975.64 -51.3634C977.067 -51.3634 978.147 -50.7156 978.88 -49.4201C979.627 -48.1389 980 -46.2739 980 -43.8253C980 -41.3766 979.627 -39.5045 978.88 -38.209C978.147 -36.9135 977.067 -36.2658 975.64 -36.2658C974.227 -36.2658 973.147 -36.9135 972.401 -38.209C971.654 -39.5045 971.281 -41.3766 971.281 -43.8253C971.281 -46.2597 971.654 -48.1246 972.401 -49.4201C973.147 -50.7156 974.227 -51.3634 975.64 -51.3634ZM972.7 -43.8253C972.7 -42.0884 972.847 -40.7288 973.14 -39.7465L977.58 -49.2066C977.114 -49.8757 976.467 -50.2103 975.64 -50.2103C974.72 -50.2103 974 -49.6835 973.48 -48.63C972.96 -47.5908 972.7 -45.9892 972.7 -43.8253ZM975.64 -37.4403C976.574 -37.4403 977.3 -37.9599 977.82 -38.9991C978.34 -40.0526 978.6 -41.6613 978.6 -43.8253C978.6 -45.6617 978.433 -47.0854 978.1 -48.0962L973.66 -38.5507C974.14 -37.8104 974.8 -37.4403 975.64 -37.4403Z" fill="url(#paint89_linear_175_1901)"/>
<path d="M976.84 -13.2059H979.78V-12.0741H972.161V-13.2059H975.56V-25.2072L972.321 -23.1358L971.761 -24.0967L975.76 -26.7447H976.84V-13.2059Z" fill="url(#paint90_linear_175_1901)"/>
<path d="M976.84 11.1992H979.78V12.331H972.161V11.1992H975.56V-0.802019L972.321 1.26937L971.761 0.308417L975.76 -2.33954H976.84V11.1992Z" fill="url(#paint91_linear_175_1901)"/>
<path d="M975.64 21.8521C977.067 21.8521 978.147 22.4998 978.88 23.7953C979.627 25.0766 980 26.9416 980 29.3902C980 31.8389 979.627 33.7109 978.88 35.0064C978.147 36.302 977.067 36.9497 975.64 36.9497C974.227 36.9497 973.147 36.302 972.401 35.0064C971.654 33.7109 971.281 31.8389 971.281 29.3902C971.281 26.9558 971.654 25.0908 972.401 23.7953C973.147 22.4998 974.227 21.8521 975.64 21.8521ZM972.7 29.3902C972.7 31.127 972.847 32.4866 973.14 33.4689L977.58 24.0089C977.114 23.3398 976.467 23.0052 975.64 23.0052C974.72 23.0052 974 23.532 973.48 24.5854C972.96 25.6247 972.7 27.2263 972.7 29.3902ZM975.64 35.7752C976.574 35.7752 977.3 35.2556 977.82 34.2163C978.34 33.1628 978.6 31.5541 978.6 29.3902C978.6 27.5537 978.433 26.1301 978.1 25.1193L973.66 34.6648C974.14 35.4051 974.8 35.7752 975.64 35.7752Z" fill="url(#paint92_linear_175_1901)"/>
<path d="M975.64 46.2572C977.067 46.2572 978.147 46.905 978.88 48.2005C979.627 49.4818 980 51.3467 980 53.7954C980 56.244 979.627 58.1161 978.88 59.4116C978.147 60.7071 977.067 61.3549 975.64 61.3549C974.227 61.3549 973.147 60.7071 972.401 59.4116C971.654 58.1161 971.281 56.244 971.281 53.7954C971.281 51.361 971.654 49.496 972.401 48.2005C973.147 46.905 974.227 46.2572 975.64 46.2572ZM972.7 53.7954C972.7 55.5322 972.847 56.8918 973.14 57.8741L977.58 48.414C977.114 47.7449 976.467 47.4104 975.64 47.4104C974.72 47.4104 974 47.9371 973.48 48.9906C972.96 50.0299 972.7 51.6314 972.7 53.7954ZM975.64 60.1804C976.574 60.1804 977.3 59.6608 977.82 58.6215C978.34 57.568 978.6 55.9593 978.6 53.7954C978.6 51.9589 978.433 50.5352 978.1 49.5245L973.66 59.0699C974.14 59.8102 974.8 60.1804 975.64 60.1804Z" fill="url(#paint93_linear_175_1901)"/>
</g>
</g>
<defs>
<filter id="filter0_f_175_1901" x="-558.19" y="-782.19" width="2141.38" height="1549.9" filterUnits="userSpaceOnUse" color-interpolation-filters="sRGB">
<feFlood flood-opacity="0" result="BackgroundImageFix"/>
<feBlend mode="normal" in="SourceGraphic" in2="BackgroundImageFix" result="shape"/>
<feGaussianBlur stdDeviation="200.095" result="effect1_foregroundBlur_175_1901"/>
</filter>
<linearGradient id="paint0_linear_175_1901" x1="52.5" y1="245.453" x2="52.5" y2="578.861" gradientUnits="userSpaceOnUse">
<stop stop-color="#F7DD43"/>
<stop offset="1" stop-color="#F7DD43" stop-opacity="0"/>
</linearGradient>
<linearGradient id="paint1_linear_175_1901" x1="52.5" y1="245.453" x2="52.5" y2="578.861" gradientUnits="userSpaceOnUse">
<stop stop-color="#F7DD43"/>
<stop offset="1" stop-color="#F7DD43" stop-opacity="0"/>
</linearGradient>
<linearGradient id="paint2_linear_175_1901" x1="52.5" y1="245.453" x2="52.5" y2="578.861" gradientUnits="userSpaceOnUse">
<stop stop-color="#F7DD43"/>
<stop offset="1" stop-color="#F7DD43" stop-opacity="0"/>
</linearGradient>
<linearGradient id="paint3_linear_175_1901" x1="52.5" y1="245.453" x2="52.5" y2="578.861" gradientUnits="userSpaceOnUse">
<stop stop-color="#F7DD43"/>
<stop offset="1" stop-color="#F7DD43" stop-opacity="0"/>
</linearGradient>
<linearGradient id="paint4_linear_175_1901" x1="52.5" y1="245.453" x2="52.5" y2="578.861" gradientUnits="userSpaceOnUse">
<stop stop-color="#F7DD43"/>
<stop offset="1" stop-color="#F7DD43" stop-opacity="0"/>
</linearGradient>
<linearGradient id="paint5_linear_175_1901" x1="52.5" y1="245.453" x2="52.5" y2="578.861" gradientUnits="userSpaceOnUse">
<stop stop-color="#F7DD43"/>
<stop offset="1" stop-color="#F7DD43" stop-opacity="0"/>
</linearGradient>
<linearGradient id="paint6_linear_175_1901" x1="52.5" y1="245.453" x2="52.5" y2="578.861" gradientUnits="userSpaceOnUse">
<stop stop-color="#F7DD43"/>
<stop offset="1" stop-color="#F7DD43" stop-opacity="0"/>
</linearGradient>
<linearGradient id="paint7_linear_175_1901" x1="52.5" y1="245.453" x2="52.5" y2="578.861" gradientUnits="userSpaceOnUse">
<stop stop-color="#F7DD43"/>
<stop offset="1" stop-color="#F7DD43" stop-opacity="0"/>
</linearGradient>
<linearGradient id="paint8_linear_175_1901" x1="52.5" y1="245.453" x2="52.5" y2="578.861" gradientUnits="userSpaceOnUse">
<stop stop-color="#F7DD43"/>
<stop offset="1" stop-color="#F7DD43" stop-opacity="0"/>
</linearGradient>
<linearGradient id="paint9_linear_175_1901" x1="52.5" y1="245.453" x2="52.5" y2="578.861" gradientUnits="userSpaceOnUse">
<stop stop-color="#F7DD43"/>
<stop offset="1" stop-color="#F7DD43" stop-opacity="0"/>
</linearGradient>
<linearGradient id="paint10_linear_175_1901" x1="52.5" y1="245.453" x2="52.5" y2="578.861" gradientUnits="userSpaceOnUse">
<stop stop-color="#F7DD43"/>
<stop offset="1" stop-color="#F7DD43" stop-opacity="0"/>
</linearGradient>
<linearGradient id="paint11_linear_175_1901" x1="52.5" y1="245.453" x2="52.5" y2="578.861" gradientUnits="userSpaceOnUse">
<stop stop-color="#F7DD43"/>
<stop offset="1" stop-color="#F7DD43" stop-opacity="0"/>
</linearGradient>
<linearGradient id="paint12_linear_175_1901" x1="52.5" y1="245.453" x2="52.5" y2="578.861" gradientUnits="userSpaceOnUse">
<stop stop-color="#F7DD43"/>
<stop offset="1" stop-color="#F7DD43" stop-opacity="0"/>
</linearGradient>
<linearGradient id="paint13_linear_175_1901" x1="52.5" y1="245.453" x2="52.5" y2="578.861" gradientUnits="userSpaceOnUse">
<stop stop-color="#F7DD43"/>
<stop offset="1" stop-color="#F7DD43" stop-opacity="0"/>
</linearGradient>
<linearGradient id="paint14_linear_175_1901" x1="52.5" y1="245.453" x2="52.5" y2="578.861" gradientUnits="userSpaceOnUse">
<stop stop-color="#F7DD43"/>
<stop offset="1" stop-color="#F7DD43" stop-opacity="0"/>
</linearGradient>
<linearGradient id="paint15_linear_175_1901" x1="52.5" y1="245.453" x2="52.5" y2="578.861" gradientUnits="userSpaceOnUse">
<stop stop-color="#F7DD43"/>
<stop offset="1" stop-color="#F7DD43" stop-opacity="0"/>
</linearGradient>
<linearGradient id="paint16_linear_175_1901" x1="52.5" y1="245.453" x2="52.5" y2="578.861" gradientUnits="userSpaceOnUse">
<stop stop-color="#F7DD43"/>
<stop offset="1" stop-color="#F7DD43" stop-opacity="0"/>
</linearGradient>
<linearGradient id="paint17_linear_175_1901" x1="52.5" y1="245.453" x2="52.5" y2="578.861" gradientUnits="userSpaceOnUse">
<stop stop-color="#F7DD43"/>
<stop offset="1" stop-color="#F7DD43" stop-opacity="0"/>
</linearGradient>
<linearGradient id="paint18_linear_175_1901" x1="52.5" y1="245.453" x2="52.5" y2="578.861" gradientUnits="userSpaceOnUse">
<stop stop-color="#F7DD43"/>
<stop offset="1" stop-color="#F7DD43" stop-opacity="0"/>
</linearGradient>
<linearGradient id="paint19_linear_175_1901" x1="52.5" y1="245.453" x2="52.5" y2="578.861" gradientUnits="userSpaceOnUse">
<stop stop-color="#F7DD43"/>
<stop offset="1" stop-color="#F7DD43" stop-opacity="0"/>
</linearGradient>
<linearGradient id="paint20_linear_175_1901" x1="52.5" y1="245.453" x2="52.5" y2="578.861" gradientUnits="userSpaceOnUse">
<stop stop-color="#F7DD43"/>
<stop offset="1" stop-color="#F7DD43" stop-opacity="0"/>
</linearGradient>
<linearGradient id="paint21_linear_175_1901" x1="52.5" y1="245.453" x2="52.5" y2="578.861" gradientUnits="userSpaceOnUse">
<stop stop-color="#F7DD43"/>
<stop offset="1" stop-color="#F7DD43" stop-opacity="0"/>
</linearGradient>
<linearGradient id="paint22_linear_175_1901" x1="52.5" y1="245.453" x2="52.5" y2="578.861" gradientUnits="userSpaceOnUse">
<stop stop-color="#F7DD43"/>
<stop offset="1" stop-color="#F7DD43" stop-opacity="0"/>
</linearGradient>
<linearGradient id="paint23_linear_175_1901" x1="52.5" y1="245.453" x2="52.5" y2="578.861" gradientUnits="userSpaceOnUse">
<stop stop-color="#F7DD43"/>
<stop offset="1" stop-color="#F7DD43" stop-opacity="0"/>
</linearGradient>
<linearGradient id="paint24_linear_175_1901" x1="52.5" y1="245.453" x2="52.5" y2="578.861" gradientUnits="userSpaceOnUse">
<stop stop-color="#F7DD43"/>
<stop offset="1" stop-color="#F7DD43" stop-opacity="0"/>
</linearGradient>
<linearGradient id="paint25_linear_175_1901" x1="52.5" y1="245.453" x2="52.5" y2="578.861" gradientUnits="userSpaceOnUse">
<stop stop-color="#F7DD43"/>
<stop offset="1" stop-color="#F7DD43" stop-opacity="0"/>
</linearGradient>
<linearGradient id="paint26_linear_175_1901" x1="52.5" y1="245.453" x2="52.5" y2="578.861" gradientUnits="userSpaceOnUse">
<stop stop-color="#F7DD43"/>
<stop offset="1" stop-color="#F7DD43" stop-opacity="0"/>
</linearGradient>
<linearGradient id="paint27_linear_175_1901" x1="52.5" y1="245.453" x2="52.5" y2="578.861" gradientUnits="userSpaceOnUse">
<stop stop-color="#F7DD43"/>
<stop offset="1" stop-color="#F7DD43" stop-opacity="0"/>
</linearGradient>
<linearGradient id="paint28_linear_175_1901" x1="52.5" y1="245.453" x2="52.5" y2="578.861" gradientUnits="userSpaceOnUse">
<stop stop-color="#F7DD43"/>
<stop offset="1" stop-color="#F7DD43" stop-opacity="0"/>
</linearGradient>
<linearGradient id="paint29_linear_175_1901" x1="52.5" y1="245.453" x2="52.5" y2="578.861" gradientUnits="userSpaceOnUse">
<stop stop-color="#F7DD43"/>
<stop offset="1" stop-color="#F7DD43" stop-opacity="0"/>
</linearGradient>
<linearGradient id="paint30_linear_175_1901" x1="52.5" y1="245.453" x2="52.5" y2="578.861" gradientUnits="userSpaceOnUse">
<stop stop-color="#F7DD43"/>
<stop offset="1" stop-color="#F7DD43" stop-opacity="0"/>
</linearGradient>
<linearGradient id="paint31_linear_175_1901" x1="52.5" y1="245.453" x2="52.5" y2="578.861" gradientUnits="userSpaceOnUse">
<stop stop-color="#F7DD43"/>
<stop offset="1" stop-color="#F7DD43" stop-opacity="0"/>
</linearGradient>
<linearGradient id="paint32_linear_175_1901" x1="52.5" y1="245.453" x2="52.5" y2="578.861" gradientUnits="userSpaceOnUse">
<stop stop-color="#F7DD43"/>
<stop offset="1" stop-color="#F7DD43" stop-opacity="0"/>
</linearGradient>
<linearGradient id="paint33_linear_175_1901" x1="52.5" y1="245.453" x2="52.5" y2="578.861" gradientUnits="userSpaceOnUse">
<stop stop-color="#F7DD43"/>
<stop offset="1" stop-color="#F7DD43" stop-opacity="0"/>
</linearGradient>
<linearGradient id="paint34_linear_175_1901" x1="52.5" y1="245.453" x2="52.5" y2="578.861" gradientUnits="userSpaceOnUse">
<stop stop-color="#F7DD43"/>
<stop offset="1" stop-color="#F7DD43" stop-opacity="0"/>
</linearGradient>
<linearGradient id="paint35_linear_175_1901" x1="52.5" y1="245.453" x2="52.5" y2="578.861" gradientUnits="userSpaceOnUse">
<stop stop-color="#F7DD43"/>
<stop offset="1" stop-color="#F7DD43" stop-opacity="0"/>
</linearGradient>
<linearGradient id="paint36_linear_175_1901" x1="52.5" y1="245.453" x2="52.5" y2="578.861" gradientUnits="userSpaceOnUse">
<stop stop-color="#F7DD43"/>
<stop offset="1" stop-color="#F7DD43" stop-opacity="0"/>
</linearGradient>
<linearGradient id="paint37_linear_175_1901" x1="52.5" y1="245.453" x2="52.5" y2="578.861" gradientUnits="userSpaceOnUse">
<stop stop-color="#F7DD43"/>
<stop offset="1" stop-color="#F7DD43" stop-opacity="0"/>
</linearGradient>
<linearGradient id="paint38_linear_175_1901" x1="52.5" y1="245.453" x2="52.5" y2="578.861" gradientUnits="userSpaceOnUse">
<stop stop-color="#F7DD43"/>
<stop offset="1" stop-color="#F7DD43" stop-opacity="0"/>
</linearGradient>
<linearGradient id="paint39_linear_175_1901" x1="52.5" y1="245.453" x2="52.5" y2="578.861" gradientUnits="userSpaceOnUse">
<stop stop-color="#F7DD43"/>
<stop offset="1" stop-color="#F7DD43" stop-opacity="0"/>
</linearGradient>
<linearGradient id="paint40_linear_175_1901" x1="52.5" y1="245.453" x2="52.5" y2="578.861" gradientUnits="userSpaceOnUse">
<stop stop-color="#F7DD43"/>
<stop offset="1" stop-color="#F7DD43" stop-opacity="0"/>
</linearGradient>
<linearGradient id="paint41_linear_175_1901" x1="52.5" y1="245.453" x2="52.5" y2="578.861" gradientUnits="userSpaceOnUse">
<stop stop-color="#F7DD43"/>
<stop offset="1" stop-color="#F7DD43" stop-opacity="0"/>
</linearGradient>
<linearGradient id="paint42_linear_175_1901" x1="52.5" y1="245.453" x2="52.5" y2="578.861" gradientUnits="userSpaceOnUse">
<stop stop-color="#F7DD43"/>
<stop offset="1" stop-color="#F7DD43" stop-opacity="0"/>
</linearGradient>
<linearGradient id="paint43_linear_175_1901" x1="52.5" y1="245.453" x2="52.5" y2="578.861" gradientUnits="userSpaceOnUse">
<stop stop-color="#F7DD43"/>
<stop offset="1" stop-color="#F7DD43" stop-opacity="0"/>
</linearGradient>
<linearGradient id="paint44_linear_175_1901" x1="52.5" y1="245.453" x2="52.5" y2="578.861" gradientUnits="userSpaceOnUse">
<stop stop-color="#F7DD43"/>
<stop offset="1" stop-color="#F7DD43" stop-opacity="0"/>
</linearGradient>
<linearGradient id="paint45_linear_175_1901" x1="52.5" y1="245.453" x2="52.5" y2="578.861" gradientUnits="userSpaceOnUse">
<stop stop-color="#F7DD43"/>
<stop offset="1" stop-color="#F7DD43" stop-opacity="0"/>
</linearGradient>
<linearGradient id="paint46_linear_175_1901" x1="52.5" y1="245.453" x2="52.5" y2="578.861" gradientUnits="userSpaceOnUse">
<stop stop-color="#F7DD43"/>
<stop offset="1" stop-color="#F7DD43" stop-opacity="0"/>
</linearGradient>
<linearGradient id="paint47_linear_175_1901" x1="938.5" y1="-75.7686" x2="938.5" y2="244.188" gradientUnits="userSpaceOnUse">
<stop stop-color="#F7DD43"/>
<stop offset="1" stop-color="#F7DD43" stop-opacity="0"/>
</linearGradient>
<linearGradient id="paint48_linear_175_1901" x1="938.5" y1="-75.7686" x2="938.5" y2="244.188" gradientUnits="userSpaceOnUse">
<stop stop-color="#F7DD43"/>
<stop offset="1" stop-color="#F7DD43" stop-opacity="0"/>
</linearGradient>
<linearGradient id="paint49_linear_175_1901" x1="938.5" y1="-75.7686" x2="938.5" y2="244.188" gradientUnits="userSpaceOnUse">
<stop stop-color="#F7DD43"/>
<stop offset="1" stop-color="#F7DD43" stop-opacity="0"/>
</linearGradient>
<linearGradient id="paint50_linear_175_1901" x1="938.5" y1="-75.7686" x2="938.5" y2="244.188" gradientUnits="userSpaceOnUse">
<stop stop-color="#F7DD43"/>
<stop offset="1" stop-color="#F7DD43" stop-opacity="0"/>
</linearGradient>
<linearGradient id="paint51_linear_175_1901" x1="938.5" y1="-75.7686" x2="938.5" y2="244.188" gradientUnits="userSpaceOnUse">
<stop stop-color="#F7DD43"/>
<stop offset="1" stop-color="#F7DD43" stop-opacity="0"/>
</linearGradient>
<linearGradient id="paint52_linear_175_1901" x1="938.5" y1="-75.7686" x2="938.5" y2="244.188" gradientUnits="userSpaceOnUse">
<stop stop-color="#F7DD43"/>
<stop offset="1" stop-color="#F7DD43" stop-opacity="0"/>
</linearGradient>
<linearGradient id="paint53_linear_175_1901" x1="938.5" y1="-75.7686" x2="938.5" y2="244.188" gradientUnits="userSpaceOnUse">
<stop stop-color="#F7DD43"/>
<stop offset="1" stop-color="#F7DD43" stop-opacity="0"/>
</linearGradient>
<linearGradient id="paint54_linear_175_1901" x1="938.5" y1="-75.7686" x2="938.5" y2="244.188" gradientUnits="userSpaceOnUse">
<stop stop-color="#F7DD43"/>
<stop offset="1" stop-color="#F7DD43" stop-opacity="0"/>
</linearGradient>
<linearGradient id="paint55_linear_175_1901" x1="938.5" y1="-75.7686" x2="938.5" y2="244.188" gradientUnits="userSpaceOnUse">
<stop stop-color="#F7DD43"/>
<stop offset="1" stop-color="#F7DD43" stop-opacity="0"/>
</linearGradient>
<linearGradient id="paint56_linear_175_1901" x1="938.5" y1="-75.7686" x2="938.5" y2="244.188" gradientUnits="userSpaceOnUse">
<stop stop-color="#F7DD43"/>
<stop offset="1" stop-color="#F7DD43" stop-opacity="0"/>
</linearGradient>
<linearGradient id="paint57_linear_175_1901" x1="938.5" y1="-75.7686" x2="938.5" y2="244.188" gradientUnits="userSpaceOnUse">
<stop stop-color="#F7DD43"/>
<stop offset="1" stop-color="#F7DD43" stop-opacity="0"/>
</linearGradient>
<linearGradient id="paint58_linear_175_1901" x1="938.5" y1="-75.7686" x2="938.5" y2="244.188" gradientUnits="userSpaceOnUse">
<stop stop-color="#F7DD43"/>
<stop offset="1" stop-color="#F7DD43" stop-opacity="0"/>
</linearGradient>
<linearGradient id="paint59_linear_175_1901" x1="938.5" y1="-75.7686" x2="938.5" y2="244.188" gradientUnits="userSpaceOnUse">
<stop stop-color="#F7DD43"/>
<stop offset="1" stop-color="#F7DD43" stop-opacity="0"/>
</linearGradient>
<linearGradient id="paint60_linear_175_1901" x1="938.5" y1="-75.7686" x2="938.5" y2="244.188" gradientUnits="userSpaceOnUse">
<stop stop-color="#F7DD43"/>
<stop offset="1" stop-color="#F7DD43" stop-opacity="0"/>
</linearGradient>
<linearGradient id="paint61_linear_175_1901" x1="938.5" y1="-75.7686" x2="938.5" y2="244.188" gradientUnits="userSpaceOnUse">
<stop stop-color="#F7DD43"/>
<stop offset="1" stop-color="#F7DD43" stop-opacity="0"/>
</linearGradient>
<linearGradient id="paint62_linear_175_1901" x1="938.5" y1="-75.7686" x2="938.5" y2="244.188" gradientUnits="userSpaceOnUse">
<stop stop-color="#F7DD43"/>
<stop offset="1" stop-color="#F7DD43" stop-opacity="0"/>
</linearGradient>
<linearGradient id="paint63_linear_175_1901" x1="938.5" y1="-75.7686" x2="938.5" y2="244.188" gradientUnits="userSpaceOnUse">
<stop stop-color="#F7DD43"/>
<stop offset="1" stop-color="#F7DD43" stop-opacity="0"/>
</linearGradient>
<linearGradient id="paint64_linear_175_1901" x1="938.5" y1="-75.7686" x2="938.5" y2="244.188" gradientUnits="userSpaceOnUse">
<stop stop-color="#F7DD43"/>
<stop offset="1" stop-color="#F7DD43" stop-opacity="0"/>
</linearGradient>
<linearGradient id="paint65_linear_175_1901" x1="938.5" y1="-75.7686" x2="938.5" y2="244.188" gradientUnits="userSpaceOnUse">
<stop stop-color="#F7DD43"/>
<stop offset="1" stop-color="#F7DD43" stop-opacity="0"/>
</linearGradient>
<linearGradient id="paint66_linear_175_1901" x1="938.5" y1="-75.7686" x2="938.5" y2="244.188" gradientUnits="userSpaceOnUse">
<stop stop-color="#F7DD43"/>
<stop offset="1" stop-color="#F7DD43" stop-opacity="0"/>
</linearGradient>
<linearGradient id="paint67_linear_175_1901" x1="938.5" y1="-75.7686" x2="938.5" y2="244.188" gradientUnits="userSpaceOnUse">
<stop stop-color="#F7DD43"/>
<stop offset="1" stop-color="#F7DD43" stop-opacity="0"/>
</linearGradient>
<linearGradient id="paint68_linear_175_1901" x1="938.5" y1="-75.7686" x2="938.5" y2="244.188" gradientUnits="userSpaceOnUse">
<stop stop-color="#F7DD43"/>
<stop offset="1" stop-color="#F7DD43" stop-opacity="0"/>
</linearGradient>
<linearGradient id="paint69_linear_175_1901" x1="938.5" y1="-75.7686" x2="938.5" y2="244.188" gradientUnits="userSpaceOnUse">
<stop stop-color="#F7DD43"/>
<stop offset="1" stop-color="#F7DD43" stop-opacity="0"/>
</linearGradient>
<linearGradient id="paint70_linear_175_1901" x1="938.5" y1="-75.7686" x2="938.5" y2="244.188" gradientUnits="userSpaceOnUse">
<stop stop-color="#F7DD43"/>
<stop offset="1" stop-color="#F7DD43" stop-opacity="0"/>
</linearGradient>
<linearGradient id="paint71_linear_175_1901" x1="938.5" y1="-75.7686" x2="938.5" y2="244.188" gradientUnits="userSpaceOnUse">
<stop stop-color="#F7DD43"/>
<stop offset="1" stop-color="#F7DD43" stop-opacity="0"/>
</linearGradient>
<linearGradient id="paint72_linear_175_1901" x1="938.5" y1="-75.7686" x2="938.5" y2="244.188" gradientUnits="userSpaceOnUse">
<stop stop-color="#F7DD43"/>
<stop offset="1" stop-color="#F7DD43" stop-opacity="0"/>
</linearGradient>
<linearGradient id="paint73_linear_175_1901" x1="938.5" y1="-75.7686" x2="938.5" y2="244.188" gradientUnits="userSpaceOnUse">
<stop stop-color="#F7DD43"/>
<stop offset="1" stop-color="#F7DD43" stop-opacity="0"/>
</linearGradient>
<linearGradient id="paint74_linear_175_1901" x1="938.5" y1="-75.7686" x2="938.5" y2="244.188" gradientUnits="userSpaceOnUse">
<stop stop-color="#F7DD43"/>
<stop offset="1" stop-color="#F7DD43" stop-opacity="0"/>
</linearGradient>
<linearGradient id="paint75_linear_175_1901" x1="938.5" y1="-75.7686" x2="938.5" y2="244.188" gradientUnits="userSpaceOnUse">
<stop stop-color="#F7DD43"/>
<stop offset="1" stop-color="#F7DD43" stop-opacity="0"/>
</linearGradient>
<linearGradient id="paint76_linear_175_1901" x1="938.5" y1="-75.7686" x2="938.5" y2="244.188" gradientUnits="userSpaceOnUse">
<stop stop-color="#F7DD43"/>
<stop offset="1" stop-color="#F7DD43" stop-opacity="0"/>
</linearGradient>
<linearGradient id="paint77_linear_175_1901" x1="938.5" y1="-75.7686" x2="938.5" y2="244.188" gradientUnits="userSpaceOnUse">
<stop stop-color="#F7DD43"/>
<stop offset="1" stop-color="#F7DD43" stop-opacity="0"/>
</linearGradient>
<linearGradient id="paint78_linear_175_1901" x1="938.5" y1="-75.7686" x2="938.5" y2="244.188" gradientUnits="userSpaceOnUse">
<stop stop-color="#F7DD43"/>
<stop offset="1" stop-color="#F7DD43" stop-opacity="0"/>
</linearGradient>
<linearGradient id="paint79_linear_175_1901" x1="938.5" y1="-75.7686" x2="938.5" y2="244.188" gradientUnits="userSpaceOnUse">
<stop stop-color="#F7DD43"/>
<stop offset="1" stop-color="#F7DD43" stop-opacity="0"/>
</linearGradient>
<linearGradient id="paint80_linear_175_1901" x1="938.5" y1="-75.7686" x2="938.5" y2="244.188" gradientUnits="userSpaceOnUse">
<stop stop-color="#F7DD43"/>
<stop offset="1" stop-color="#F7DD43" stop-opacity="0"/>
</linearGradient>
<linearGradient id="paint81_linear_175_1901" x1="938.5" y1="-75.7686" x2="938.5" y2="244.188" gradientUnits="userSpaceOnUse">
<stop stop-color="#F7DD43"/>
<stop offset="1" stop-color="#F7DD43" stop-opacity="0"/>
</linearGradient>
<linearGradient id="paint82_linear_175_1901" x1="938.5" y1="-75.7686" x2="938.5" y2="244.188" gradientUnits="userSpaceOnUse">
<stop stop-color="#F7DD43"/>
<stop offset="1" stop-color="#F7DD43" stop-opacity="0"/>
</linearGradient>
<linearGradient id="paint83_linear_175_1901" x1="938.5" y1="-75.7686" x2="938.5" y2="244.188" gradientUnits="userSpaceOnUse">
<stop stop-color="#F7DD43"/>
<stop offset="1" stop-color="#F7DD43" stop-opacity="0"/>
</linearGradient>
<linearGradient id="paint84_linear_175_1901" x1="938.5" y1="-75.7686" x2="938.5" y2="244.188" gradientUnits="userSpaceOnUse">
<stop stop-color="#F7DD43"/>
<stop offset="1" stop-color="#F7DD43" stop-opacity="0"/>
</linearGradient>
<linearGradient id="paint85_linear_175_1901" x1="938.5" y1="-75.7686" x2="938.5" y2="244.188" gradientUnits="userSpaceOnUse">
<stop stop-color="#F7DD43"/>
<stop offset="1" stop-color="#F7DD43" stop-opacity="0"/>
</linearGradient>
<linearGradient id="paint86_linear_175_1901" x1="938.5" y1="-75.7686" x2="938.5" y2="244.188" gradientUnits="userSpaceOnUse">
<stop stop-color="#F7DD43"/>
<stop offset="1" stop-color="#F7DD43" stop-opacity="0"/>
</linearGradient>
<linearGradient id="paint87_linear_175_1901" x1="938.5" y1="-75.7686" x2="938.5" y2="244.188" gradientUnits="userSpaceOnUse">
<stop stop-color="#F7DD43"/>
<stop offset="1" stop-color="#F7DD43" stop-opacity="0"/>
</linearGradient>
<linearGradient id="paint88_linear_175_1901" x1="938.5" y1="-75.7686" x2="938.5" y2="244.188" gradientUnits="userSpaceOnUse">
<stop stop-color="#F7DD43"/>
<stop offset="1" stop-color="#F7DD43" stop-opacity="0"/>
</linearGradient>
<linearGradient id="paint89_linear_175_1901" x1="938.5" y1="-75.7686" x2="938.5" y2="244.188" gradientUnits="userSpaceOnUse">
<stop stop-color="#F7DD43"/>
<stop offset="1" stop-color="#F7DD43" stop-opacity="0"/>
</linearGradient>
<linearGradient id="paint90_linear_175_1901" x1="938.5" y1="-75.7686" x2="938.5" y2="244.188" gradientUnits="userSpaceOnUse">
<stop stop-color="#F7DD43"/>
<stop offset="1" stop-color="#F7DD43" stop-opacity="0"/>
</linearGradient>
<linearGradient id="paint91_linear_175_1901" x1="938.5" y1="-75.7686" x2="938.5" y2="244.188" gradientUnits="userSpaceOnUse">
<stop stop-color="#F7DD43"/>
<stop offset="1" stop-color="#F7DD43" stop-opacity="0"/>
</linearGradient>
<linearGradient id="paint92_linear_175_1901" x1="938.5" y1="-75.7686" x2="938.5" y2="244.188" gradientUnits="userSpaceOnUse">
<stop stop-color="#F7DD43"/>
<stop offset="1" stop-color="#F7DD43" stop-opacity="0"/>
</linearGradient>
<linearGradient id="paint93_linear_175_1901" x1="938.5" y1="-75.7686" x2="938.5" y2="244.188" gradientUnits="userSpaceOnUse">
<stop stop-color="#F7DD43"/>
<stop offset="1" stop-color="#F7DD43" stop-opacity="0"/>
</linearGradient>
<clipPath id="clip0_175_1901">
<rect width="1024" height="753" fill="white"/>
</clipPath>
</defs>
</svg>
